<?xml version="1.0" encoding="UTF-8"?>
<!DOCTYPE svg PUBLIC "-//W3C//DTD SVG 1.0//EN" "http://www.w3.org/TR/2001/REC-SVG-20010904/DTD/svg10.dtd">
<!-- Creator: CorelDRAW 2018 (64-Bit) -->
<svg xmlns="http://www.w3.org/2000/svg" xml:space="preserve" width="17.7798mm" height="17.7798mm" version="1.0" style="shape-rendering:geometricPrecision; text-rendering:geometricPrecision; image-rendering:optimizeQuality; fill-rule:evenodd; clip-rule:evenodd"
viewBox="0 0 1777.98 1777.98"
 xmlns:xlink="http://www.w3.org/1999/xlink">
 <defs>
  <style type="text/css">
   <![CDATA[
    .fil0 {fill:#2090F6}
    .fil2 {fill:white}
    .fil1 {fill:white;fill-rule:nonzero}
    .fil4 {fill:#00CCFF;fill-opacity:0.501961}
    .fil3 {fill:#00CCFF;fill-rule:nonzero;fill-opacity:0.501961}
   ]]>
  </style>
 </defs>
 <g id="Layer_x0020_1">
  <metadata id="CorelCorpID_0Corel-Layer"/>
  <g id="_2412530222960">
   <rect class="fil0" x="126.99" y="126.99" width="1524" height="1524" rx="206.96" ry="206.96"/>
   <path class="fil1" d="M436 1390.28l0 -200.69 -99.96 114.8 -99.95 -114.8 0 200.69 12.76 0 0 -165.27 78.16 89.71 -41.48 47.52 101.02 0 -41.47 -47.52 77.89 -89.71 0 165.27 13.03 0zm-80.02 -42.5l-40.14 0 20.2 -22.73 19.94 22.73zm207.62 42.5l0 -95.03 101.02 -105.95 -94.64 0 0 14.46 62.21 0 -74.17 77.62 -71.78 -77.62 62.47 0 0 -14.46 -94.1 0 95.97 104.47 0 96.51 13.02 0zm319.54 0l0 -186.52 87.46 0 0 -14.17 -192.73 0 0 14.17 92.24 0 0 186.52 13.03 0zm263.45 0l-99.43 -198.92 -110.32 198.92 77.62 0 39.62 -77.62 -14.89 0 -32.17 63.15 -47.05 0 86.4 -156.12 85.33 170.59 14.89 0zm31.63 0l0 -162.32 144.35 160.84 0 -199.5 -13.02 0 0 164.67 -144.35 -160.84 0 197.15 13.02 0zm170.94 0l192.73 -201.28 -18.88 0 -160.83 167.93 0 -133.69 0.54 -19.28 -13.56 -14.66 0 200.98zm185.02 -0.3l-75.5 -81.75 -9.04 10.33 65.93 71.42 18.61 0z"/>
   <path class="fil2" d="M673.75 489.89l208.71 0c110.96,0 202.89,81.49 219.19,187.89 1.05,6.77 1.78,13.63 2.18,20.57 0.27,4.4 0.39,8.82 0.39,13.28l0 0.01c0,103.01 -74.61,188.59 -172.73,205.63 -11.69,2.04 -23.71,3.09 -35.98,3.09 -99.42,0 -183.56,-65.42 -211.71,-155.56 -0.12,-0.38 -0.24,-0.76 -0.36,-1.14 -0.12,-0.41 -0.24,-0.81 -0.36,-1.21 -6.07,-20.22 -9.33,-41.65 -9.33,-63.85l0 -208.71zm208.71 -102.18l-310.9 0 0 310.89c0,178.91 145.04,323.94 323.95,323.94 171.71,0 310.9,-139.19 310.9,-310.9 0,-178.9 -145.04,-323.93 -323.95,-323.93z"/>
   <path class="fil3" d="M1104.22 711.63l0 0.01c0,59.73 -25.08,113.6 -65.3,151.64 -23.82,22.54 -52.93,39.53 -85.29,48.87 -18.45,5.36 -37.95,8.21 -58.12,8.21 -39.96,0 -77.42,-10.56 -109.8,-29.06l-0.01 0c-41.16,-23.51 -74.06,-59.81 -93.27,-103.5 -3.45,-7.83 -6.45,-15.87 -8.99,-24.14 -2.56,-8.38 -4.64,-16.98 -6.21,-25.74 28.63,11.28 70.18,23.3 121.68,26.09 0.01,0 0.01,0 0.01,0 28.62,-10.56 58.74,-25.25 89.16,-45.53 86.77,-57.84 164.63,-53.65 213.57,-40.7 1.05,6.77 1.78,13.63 2.18,20.57 0.27,4.4 0.39,8.82 0.39,13.28z"/>
   <path class="fil3" d="M1104.22 711.63l0 0.01c0,59.73 -25.08,113.6 -65.3,151.64 -23.82,22.54 -52.93,39.53 -85.29,48.87 -18.45,5.36 -37.95,8.21 -58.12,8.21 -39.96,0 -77.42,-10.56 -109.8,-29.06l-0.01 0c-41.16,-23.51 -74.06,-59.81 -93.27,-103.5 -3.45,-7.83 -6.45,-15.87 -8.99,-24.14 -2.56,-8.38 -4.64,-16.98 -6.21,-25.74 28.63,11.28 70.18,23.3 121.68,26.09 0.01,0 0.01,0 0.01,0 28.62,-10.56 58.74,-25.25 89.16,-45.53 86.77,-57.84 164.63,-53.65 213.57,-40.7 1.05,6.77 1.78,13.63 2.18,20.57 0.27,4.4 0.39,8.82 0.39,13.28z"/>
   <path class="fil4" d="M1104.22 711.63l0 0.01c0,59.73 -25.08,113.6 -65.3,151.64 -23.82,22.54 -52.93,39.53 -85.29,48.87 -18.45,5.36 -37.95,8.21 -58.12,8.21 -39.96,0 -77.42,-10.56 -109.8,-29.06l-0.01 0c-41.16,-23.51 -74.06,-59.81 -93.27,-103.5 -3.45,-7.83 -6.45,-15.87 -8.99,-24.14 -2.56,-8.38 -4.64,-16.98 -6.21,-25.74 28.63,11.28 70.18,23.3 121.68,26.09 0.01,0 0.01,0 0.01,0 50.38,2.75 110.3,-3.3 176.99,-27.47 45.26,-16.41 88.33,-28.82 127.92,-38.19 0.27,4.4 0.39,8.82 0.39,13.28z"/>
   <path class="fil4" d="M1104.22 711.63l0 0.01c0,59.73 -25.08,113.6 -65.3,151.64 -23.82,22.54 -52.93,39.53 -85.29,48.87 -45.47,-5 -110.72,-12.15 -167.92,-20.85l-0.01 0c-41.16,-23.51 -74.06,-59.81 -93.27,-103.5 21.13,-1.8 45.12,-5.54 70.91,-12.48l0.01 0c11.52,-3.09 23.41,-6.83 35.56,-11.31 0.01,0 0.01,0 0.01,0 28.62,-10.56 58.74,-25.25 89.16,-45.53 86.77,-57.84 164.63,-53.65 213.57,-40.7 1.05,6.77 1.78,13.63 2.18,20.57 0.27,4.4 0.39,8.82 0.39,13.28z"/>
   <path class="fil4" d="M1038.92 863.28c-23.82,22.54 -52.93,39.53 -85.29,48.87 -18.45,5.36 -37.95,8.21 -58.12,8.21 -39.96,0 -77.42,-10.56 -109.8,-29.06l-0.01 0c-41.16,-23.51 -74.06,-59.81 -93.27,-103.5 -3.45,-7.83 -6.45,-15.87 -8.99,-24.14 25.93,2.46 52.82,6.21 79.9,11.66l0.01 0c55.32,11.14 111.44,29.44 161.78,58.58 36.76,21.28 75.39,29.69 113.79,29.38z"/>
  </g>
 </g>
</svg>
