<?xml version="1.0" encoding="UTF-8"?>
<!DOCTYPE svg PUBLIC "-//W3C//DTD SVG 1.0//EN" "http://www.w3.org/TR/2001/REC-SVG-20010904/DTD/svg10.dtd">
<!-- Creator: CorelDRAW 2018 (64-Bit) -->
<svg xmlns="http://www.w3.org/2000/svg" xml:space="preserve" width="50.7998mm" height="50.7998mm" version="1.0" style="shape-rendering:geometricPrecision; text-rendering:geometricPrecision; image-rendering:optimizeQuality; fill-rule:evenodd; clip-rule:evenodd"
viewBox="0 0 5079.98 5079.98"
 xmlns:xlink="http://www.w3.org/1999/xlink">
 <defs>
  <style type="text/css">
   <![CDATA[
    .fil0 {fill:#2090F6}
    .fil2 {fill:white}
    .fil1 {fill:white;fill-rule:nonzero}
    .fil4 {fill:#00CCFF;fill-opacity:0.501961}
    .fil3 {fill:#00CCFF;fill-rule:nonzero;fill-opacity:0.501961}
   ]]>
  </style>
 </defs>
 <g id="Layer_x0020_1">
  <metadata id="CorelCorpID_0Corel-Layer"/>
  <g id="_2412582183328">
   <rect class="fil0" x="372.53" y="372.52" width="4334.93" height="4334.93" rx="588.68" ry="588.68"/>
   <path class="fil1" d="M1251.49 3965.87l0 -570.83 -284.32 326.54 -284.32 -326.54 0 570.83 36.3 0 0 -470.1 222.31 255.2 -117.96 135.15 287.34 0 -117.96 -135.15 221.56 -255.2 0 470.1 37.05 0zm-227.61 -120.88l-114.18 0 57.47 -64.64 56.71 64.64zm590.56 120.88l0 -270.31 287.35 -301.36 -269.2 0 0 41.13 176.95 0 -210.98 220.78 -204.16 -220.78 177.7 0 0 -41.13 -267.68 0 272.97 297.16 0 274.51 37.05 0zm908.91 0l0 -530.54 248.78 0 0 -40.29 -548.22 0 0 40.29 262.38 0 0 530.54 37.06 0zm749.36 0l-282.81 -565.8 -313.81 565.8 220.8 0 112.68 -220.78 -42.35 0 -91.49 179.64 -133.84 0 245.75 -444.07 242.72 485.21 42.35 0zm89.98 0l0 -461.7 410.6 457.5 0 -567.47 -37.05 0 0 468.41 -410.6 -457.5 0 560.76 37.05 0zm486.21 0l548.22 -572.51 -53.68 0 -457.48 477.65 0 -380.27 1.52 -54.83 -38.58 -41.71 0 571.67zm526.3 -0.84l-214.75 -232.53 -25.71 29.38 187.52 203.15 52.94 0z"/>
   <path class="fil2" d="M1927.74 1404.77l593.69 0c315.62,0 577.09,231.8 623.47,534.45 2.97,19.27 5.04,38.77 6.2,58.51 0.75,12.51 1.11,25.08 1.11,37.77l0 0.04c0,293 -212.23,536.41 -491.34,584.9 -33.25,5.78 -67.44,8.79 -102.34,8.79 -282.79,0 -522.12,-186.09 -602.2,-442.5 -0.34,-1.08 -0.68,-2.16 -1.01,-3.25 -0.35,-1.14 -0.7,-2.28 -1.04,-3.43 -17.26,-57.51 -26.54,-118.47 -26.54,-181.6l0 -593.68zm593.69 -290.65l-884.34 0 0 884.33c0,508.88 412.54,921.43 921.44,921.43 488.42,0 884.34,-395.93 884.34,-884.34 0,-508.89 -412.54,-921.42 -921.44,-921.42z"/>
   <path class="fil3" d="M3152.21 2035.5l0 0.04c0,169.88 -71.35,323.12 -185.75,431.32 -67.75,64.11 -150.56,112.43 -242.62,139.02 -52.47,15.23 -107.94,23.35 -165.31,23.35 -113.65,0 -220.22,-30.06 -312.31,-82.68l-0.04 0c-117.06,-66.86 -210.64,-170.12 -265.3,-294.39 -9.79,-22.26 -18.33,-45.15 -25.56,-68.68 -7.28,-23.82 -13.21,-48.27 -17.67,-73.2 81.45,32.08 199.62,66.27 346.12,74.2 0.03,0 0.03,0 0.03,0 81.41,-30.02 167.06,-71.8 253.61,-129.49 246.8,-164.52 468.28,-152.61 607.49,-115.77 2.97,19.27 5.04,38.77 6.2,58.51 0.75,12.51 1.11,25.08 1.11,37.77z"/>
   <path class="fil3" d="M3152.21 2035.5l0 0.04c0,169.88 -71.35,323.12 -185.75,431.32 -67.75,64.11 -150.56,112.43 -242.62,139.02 -52.47,15.23 -107.94,23.35 -165.31,23.35 -113.65,0 -220.22,-30.06 -312.31,-82.68l-0.04 0c-117.06,-66.86 -210.64,-170.12 -265.3,-294.39 -9.79,-22.26 -18.33,-45.15 -25.56,-68.68 -7.28,-23.82 -13.21,-48.27 -17.67,-73.2 81.45,32.08 199.62,66.27 346.12,74.2 0.03,0 0.03,0 0.03,0 81.41,-30.02 167.06,-71.8 253.61,-129.49 246.8,-164.52 468.28,-152.61 607.49,-115.77 2.97,19.27 5.04,38.77 6.2,58.51 0.75,12.51 1.11,25.08 1.11,37.77z"/>
   <path class="fil4" d="M3152.21 2035.5l0 0.04c0,169.88 -71.35,323.12 -185.75,431.32 -67.75,64.11 -150.56,112.43 -242.62,139.02 -52.47,15.23 -107.94,23.35 -165.31,23.35 -113.65,0 -220.22,-30.06 -312.31,-82.68l-0.04 0c-117.06,-66.86 -210.64,-170.12 -265.3,-294.39 -9.79,-22.26 -18.33,-45.15 -25.56,-68.68 -7.28,-23.82 -13.21,-48.27 -17.67,-73.2 81.45,32.08 199.62,66.27 346.12,74.2 0.03,0 0.03,0 0.03,0 143.31,7.84 313.73,-9.37 503.42,-78.14 128.74,-46.67 251.26,-81.96 363.88,-108.61 0.75,12.51 1.11,25.08 1.11,37.77z"/>
   <path class="fil4" d="M3152.21 2035.5l0 0.04c0,169.88 -71.35,323.12 -185.75,431.32 -67.75,64.11 -150.56,112.43 -242.62,139.02 -129.32,-14.24 -314.91,-34.57 -477.62,-59.33l-0.04 0c-117.06,-66.86 -210.64,-170.12 -265.3,-294.39 60.11,-5.11 128.35,-15.77 201.71,-35.51l0.03 0c32.76,-8.79 66.57,-19.41 101.15,-32.17 0.03,0 0.03,0 0.03,0 81.41,-30.02 167.06,-71.8 253.61,-129.49 246.8,-164.52 468.28,-152.61 607.49,-115.77 2.97,19.27 5.04,38.77 6.2,58.51 0.75,12.51 1.11,25.08 1.11,37.77z"/>
   <path class="fil4" d="M2966.46 2466.86c-67.75,64.11 -150.56,112.43 -242.62,139.02 -52.47,15.23 -107.94,23.35 -165.31,23.35 -113.65,0 -220.22,-30.06 -312.31,-82.68l-0.04 0c-117.06,-66.86 -210.64,-170.12 -265.3,-294.39 -9.79,-22.26 -18.33,-45.15 -25.56,-68.68 73.76,7.02 150.23,17.67 227.27,33.17l0.03 0c157.36,31.69 316.99,83.75 460.17,166.65 104.57,60.52 214.43,84.44 323.67,83.56z"/>
  </g>
 </g>
</svg>
